<?xml version="1.0" encoding="UTF-8" ?>
<!DOCTYPE svg PUBLIC "-//W3C//DTD SVG 1.1//EN" "http://www.w3.org/Graphics/SVG/1.1/DTD/svg11.dtd">
<svg width="720pt" height="720pt" viewBox="0 0 720 720" version="1.1" xmlns="http://www.w3.org/2000/svg">
<g id="#ffffffff">
<path fill="#ffffff" opacity="1.00" d=" M 323.08 22.23 C 388.99 14.91 457.08 27.27 515.89 58.04 C 584.69 93.79 640.59 153.84 670.95 225.23 C 706.08 306.93 706.93 402.65 673.11 484.92 C 643.51 558.06 587.34 619.96 517.53 656.69 C 475.71 678.83 429.17 692.02 381.94 694.93 C 318.77 699.17 254.57 684.92 198.94 654.74 C 188.61 656.95 178.42 660.04 168.15 662.59 C 118.61 675.55 69.11 688.63 19.55 701.51 C 32.44 654.95 45.10 608.33 57.89 561.75 C 60.99 549.91 64.64 538.17 67.39 526.28 C 38.57 476.24 22.96 418.73 22.51 360.99 C 22.17 324.48 27.74 287.91 39.11 253.21 C 53.15 210.17 76.05 170.06 105.87 135.99 C 133.04 104.87 165.93 78.73 202.44 59.36 C 239.83 39.53 280.99 26.78 323.08 22.23 M 273.29 91.20 C 237.00 103.01 203.21 122.40 174.65 147.70 C 144.57 174.24 120.19 207.25 103.89 243.91 C 73.72 310.73 71.65 389.54 97.96 457.95 C 105.64 478.42 116.09 497.74 128.07 515.99 C 129.94 517.97 128.14 520.52 127.74 522.72 C 118.77 555.57 109.66 588.38 100.79 621.25 C 136.22 612.15 171.53 602.55 206.98 593.56 C 219.66 600.90 232.28 608.44 245.77 614.25 C 313.67 644.85 393.88 646.67 463.05 619.03 C 534.24 591.24 592.72 532.92 620.82 461.86 C 636.81 422.12 643.30 378.64 639.93 335.94 C 636.60 291.78 622.57 248.45 599.21 210.81 C 578.62 177.45 550.94 148.52 518.65 126.30 C 481.47 100.70 437.96 84.40 393.11 79.31 C 352.94 74.58 311.74 78.61 273.29 91.20 Z" />
<path fill="#ffffff" opacity="1.00" d=" M 236.20 202.26 C 243.09 201.44 250.07 201.97 256.99 202.05 C 261.47 202.04 266.15 203.28 269.32 206.62 C 273.72 211.05 276.00 216.99 278.40 222.63 C 286.90 242.30 294.57 262.31 302.99 282.01 C 305.25 286.97 303.78 292.56 301.08 297.01 C 297.58 305.03 291.35 311.30 285.89 317.98 C 283.23 321.27 279.99 324.06 277.47 327.47 C 274.83 331.00 275.29 335.95 277.48 339.58 C 288.75 358.94 302.49 376.88 318.38 392.69 C 332.13 405.90 347.45 417.57 364.16 426.81 C 373.96 432.40 384.36 436.81 394.65 441.40 C 397.83 442.84 401.50 443.71 404.91 442.63 C 408.29 441.47 410.59 438.57 412.83 435.95 C 420.93 426.33 429.20 416.82 436.53 406.58 C 438.74 403.53 441.17 400.13 445.02 399.13 C 450.41 398.17 455.53 400.69 460.39 402.66 C 480.40 411.70 500.00 421.62 519.74 431.22 C 522.99 432.87 526.41 434.38 529.13 436.87 C 531.34 438.92 531.20 442.19 531.45 444.96 C 531.59 452.91 530.35 460.84 528.35 468.53 C 526.55 475.39 524.46 482.42 519.84 487.97 C 511.42 498.45 499.97 506.07 488.04 512.03 C 480.26 515.86 471.87 518.66 463.14 519.04 C 442.05 522.13 421.13 515.90 401.18 509.68 C 381.38 502.95 361.47 496.06 343.04 486.02 C 310.16 468.14 281.80 442.90 257.22 414.87 C 244.94 400.90 233.86 385.94 223.42 370.55 C 209.98 352.27 198.67 332.09 192.59 310.12 C 186.40 288.07 187.43 263.78 196.72 242.74 C 202.00 230.55 210.51 220.10 219.84 210.78 C 224.31 206.42 230.06 203.39 236.20 202.26 Z" />
</g>
<g id="#40c351ff">
<path fill="#40c351" opacity="1.00" d=" M 273.29 91.20 C 311.74 78.61 352.94 74.58 393.11 79.31 C 437.96 84.40 481.47 100.70 518.65 126.30 C 550.94 148.52 578.62 177.45 599.21 210.81 C 622.57 248.45 636.60 291.78 639.93 335.94 C 643.30 378.64 636.81 422.12 620.82 461.86 C 592.72 532.92 534.24 591.24 463.05 619.03 C 393.88 646.67 313.67 644.85 245.77 614.25 C 232.28 608.44 219.66 600.90 206.98 593.56 C 171.53 602.55 136.22 612.15 100.79 621.25 C 109.66 588.38 118.77 555.57 127.74 522.72 C 128.14 520.52 129.94 517.97 128.07 515.99 C 116.09 497.74 105.64 478.42 97.96 457.95 C 71.65 389.54 73.72 310.73 103.89 243.91 C 120.19 207.25 144.57 174.24 174.65 147.70 C 203.21 122.40 237.00 103.01 273.29 91.20 M 236.20 202.26 C 230.06 203.39 224.31 206.42 219.84 210.78 C 210.51 220.10 202.00 230.55 196.72 242.74 C 187.43 263.78 186.40 288.07 192.59 310.12 C 198.67 332.09 209.98 352.27 223.42 370.55 C 233.86 385.94 244.94 400.90 257.22 414.87 C 281.80 442.90 310.16 468.14 343.04 486.02 C 361.47 496.06 381.38 502.95 401.18 509.68 C 421.13 515.90 442.05 522.13 463.14 519.04 C 471.87 518.66 480.26 515.86 488.04 512.03 C 499.97 506.07 511.42 498.45 519.84 487.97 C 524.46 482.42 526.55 475.39 528.35 468.53 C 530.35 460.84 531.59 452.91 531.45 444.96 C 531.20 442.19 531.34 438.92 529.13 436.87 C 526.41 434.38 522.99 432.87 519.74 431.22 C 500.00 421.62 480.40 411.70 460.39 402.66 C 455.53 400.69 450.41 398.17 445.02 399.13 C 441.17 400.13 438.74 403.53 436.53 406.58 C 429.20 416.82 420.93 426.33 412.83 435.95 C 410.59 438.57 408.29 441.47 404.91 442.63 C 401.50 443.71 397.83 442.84 394.65 441.40 C 384.36 436.81 373.96 432.40 364.16 426.81 C 347.45 417.57 332.13 405.90 318.38 392.69 C 302.49 376.88 288.75 358.94 277.48 339.58 C 275.29 335.95 274.83 331.00 277.47 327.47 C 279.99 324.06 283.23 321.27 285.89 317.98 C 291.35 311.30 297.58 305.03 301.08 297.01 C 303.78 292.56 305.25 286.97 302.99 282.01 C 294.57 262.31 286.90 242.30 278.40 222.63 C 276.00 216.99 273.72 211.05 269.32 206.62 C 266.15 203.28 261.47 202.04 256.99 202.05 C 250.07 201.97 243.09 201.44 236.20 202.26 Z" />
</g>
</svg>
